<svg width="23" height="26" viewBox="0 0 23 26" fill="none" xmlns="http://www.w3.org/2000/svg">
<path d="M4.47367 8.94736C4.47369 5.11043 7.58413 2 11.4211 2V2C15.258 2 18.3684 5.11045 18.3684 8.94738V11.5823C18.3684 11.7535 18.4056 11.9226 18.4773 12.078L19.802 14.9481C20.449 16.35 20.7725 17.0509 20.7005 17.6197C20.625 18.2158 20.2855 18.7463 19.7759 19.0647C19.2897 19.3684 18.5177 19.3684 16.9737 19.3684H11.4211H5.86846C4.32444 19.3684 3.55244 19.3684 3.06616 19.0646C2.55661 18.7463 2.21716 18.2158 2.14166 17.6197C2.06961 17.0509 2.39313 16.35 3.04016 14.9481L4.36478 12.078C4.43651 11.9226 4.47366 11.7535 4.47366 11.5823L4.47367 8.94736Z" stroke="white" stroke-width="3"/>
<path d="M7.94727 23.4209L9.11937 23.6162C10.6432 23.8702 12.1987 23.8702 13.7225 23.6162L14.8946 23.4209" stroke="white" stroke-width="3" stroke-linecap="round"/>
</svg>
