<svg width="27" height="25" viewBox="0 0 27 25" fill="none" xmlns="http://www.w3.org/2000/svg">
<path d="M15.9359 2.15333C16.1185 1.67327 15.8781 1.13233 15.3854 0.987423C13.616 0.467126 11.7462 0.360491 9.92161 0.681358C7.79096 1.05605 5.80123 1.99975 4.16296 3.4126C2.5247 4.82545 1.29884 6.6549 0.615105 8.70735C-0.0686284 10.7598 -0.184804 12.9589 0.278872 15.072C0.742548 17.1851 1.76883 19.1335 3.24911 20.7111C4.7294 22.2887 6.60863 23.4368 8.68794 24.0339C10.7673 24.631 12.9693 24.6549 15.0611 24.103C16.8524 23.6304 18.5058 22.7507 19.8947 21.5374C20.2815 21.1995 20.2733 20.6076 19.9065 20.2481C19.5396 19.8886 18.9534 19.8983 18.5618 20.2306C17.4111 21.2074 16.0536 21.9175 14.5866 22.3045C12.8191 22.7708 10.9583 22.7507 9.20131 22.2461C7.44429 21.7416 5.85634 20.7714 4.60551 19.4384C3.35467 18.1053 2.48746 16.4589 2.09565 14.6733C1.70385 12.8878 1.80202 11.0295 2.37977 9.29522C2.95752 7.56089 3.99337 6.01501 5.37771 4.82115C6.76204 3.62729 8.44337 2.82987 10.2438 2.51325C11.738 2.25048 13.2681 2.32701 14.722 2.7322C15.2168 2.87008 15.7533 2.6334 15.9359 2.15333Z" fill="black"/>
<path d="M7 13.8333L10.5 17.5L11.524 16.4272M21 6.5L14.937 12.8517" stroke="black" stroke-width="1.5" stroke-linecap="round" stroke-linejoin="round"/>
<path d="M12 13.8333L15.5 17.5L26 6.5" stroke="black" stroke-width="1.5" stroke-linecap="round" stroke-linejoin="round"/>
</svg>
