<svg width="12" height="13" viewBox="0 0 12 13" fill="none" xmlns="http://www.w3.org/2000/svg">
<path d="M1 4.5H3C3.55228 4.5 4 4.05228 4 3.5V1.5C4 0.947715 4.44771 0.5 5 0.5H7C7.55228 0.5 8 0.947715 8 1.5V3.5C8 4.05228 8.44771 4.5 9 4.5H11C11.5523 4.5 12 4.94771 12 5.5V7.5C12 8.05228 11.5523 8.5 11 8.5H9C8.44771 8.5 8 8.94771 8 9.5V11.5C8 12.0523 7.55228 12.5 7 12.5H5C4.44771 12.5 4 12.0523 4 11.5V9.5C4 8.94771 3.55228 8.5 3 8.5H1C0.447715 8.5 0 8.05228 0 7.5V5.5C0 4.94771 0.447715 4.5 1 4.5Z" fill="#42C970"/>
</svg>
