<svg width="31" height="33" viewBox="0 0 31 33" fill="none" xmlns="http://www.w3.org/2000/svg">
<path d="M4 14V29C4 29.9428 4 30.4142 4.29289 30.7071C4.58579 31 5.05719 31 6 31H25C25.9428 31 26.4142 31 26.7071 30.7071C27 30.4142 27 29.9428 27 29V14" stroke="#007AFF" stroke-width="3"/>
<path d="M2 16L14.0603 3.49301C14.7368 2.79143 15.0751 2.44064 15.5 2.44064C15.9249 2.44064 16.2632 2.79143 16.9397 3.49301L29 16" stroke="#007AFF" stroke-width="3" stroke-linecap="round"/>
<path d="M11.5 23C11.5 22.5145 11.5011 22.2006 11.5322 21.9694C11.5613 21.7525 11.6084 21.6845 11.6464 21.6464C11.6845 21.6084 11.7525 21.5613 11.9694 21.5322C12.2006 21.5011 12.5145 21.5 13 21.5H18C18.4855 21.5 18.7994 21.5011 19.0306 21.5322C19.2475 21.5613 19.3155 21.6084 19.3536 21.6464C19.3916 21.6845 19.4387 21.7525 19.4678 21.9694C19.4989 22.2006 19.5 22.5145 19.5 23V31.5H11.5V23Z" fill="#007AFF" stroke="#007AFF"/>
<path d="M22.5 5C22.5 4.75016 22.5011 4.61308 22.5138 4.51799C22.514 4.51675 22.5142 4.51554 22.5143 4.51435C22.5155 4.51418 22.5167 4.51401 22.518 4.51385C22.6131 4.50106 22.7502 4.5 23 4.5H25C25.2498 4.5 25.3869 4.50106 25.482 4.51385C25.4833 4.51401 25.4845 4.51418 25.4857 4.51435C25.4858 4.51554 25.486 4.51675 25.4862 4.51799C25.4989 4.61308 25.5 4.75016 25.5 5V11.6849L22.8789 8.73615C22.6044 8.42739 22.5577 8.36345 22.5326 8.29749L22.0653 8.47518L22.5326 8.29749C22.5076 8.23153 22.5 8.1527 22.5 7.7396V5Z" fill="#007AFF" stroke="#007AFF"/>
</svg>
