<svg width="30" height="30" viewBox="0 0 30 30" fill="none" xmlns="http://www.w3.org/2000/svg">
<path d="M28.5 28.5V25.8C28.5 24.8234 28.5 24.335 28.3874 23.9357C28.1041 22.9311 27.3189 22.146 26.3143 21.8626C25.915 21.75 25.4267 21.75 24.45 21.75H13.8C12.8234 21.75 12.335 21.75 11.9357 21.8626C10.9311 22.146 10.146 22.9311 9.86263 23.9357C9.75 24.335 9.75 24.8234 9.75 25.8V28.5" stroke="#6F6D6D" stroke-width="3" stroke-linecap="round" stroke-linejoin="round"/>
<path d="M1.5 23.25V18.9C1.5 18.0633 1.5 17.6449 1.58289 17.2997C1.84624 16.2027 2.70272 15.3462 3.79966 15.0829C4.14493 15 4.56328 15 5.4 15H7.50001" stroke="#6F6D6D" stroke-width="3" stroke-linecap="round" stroke-linejoin="round"/>
<path d="M24.75 11.25C24.75 14.1495 22.3995 16.5 19.5 16.5C16.6005 16.5 14.25 14.1495 14.25 11.25C14.25 8.35051 16.6005 6 19.5 6C22.3995 6 24.75 8.35051 24.75 11.25Z" stroke="#6F6D6D" stroke-width="3"/>
<path d="M13.5 3.57057C12.6205 2.32253 11.1166 1.5 9.4091 1.5C6.69788 1.5 4.5 3.57372 4.5 6.13178C4.5 8.14849 5.86605 9.86416 7.77273 10.5" stroke="#6F6D6D" stroke-width="3" stroke-linecap="round"/>
</svg>
