<svg width="17" height="20" viewBox="0 0 17 20" fill="none" xmlns="http://www.w3.org/2000/svg">
<path d="M16 19.0044L16 17.5544C16 16.5778 16 16.0894 15.8874 15.6901C15.604 14.6855 14.8189 13.9004 13.8143 13.617C13.415 13.5044 12.9266 13.5044 11.95 13.5044H5.05C4.07337 13.5044 3.58505 13.5044 3.18568 13.617C2.18108 13.9004 1.39596 14.6855 1.11263 15.6901C1 16.0894 0.999999 16.5778 0.999999 17.5544L0.999999 19.0044M13.2 5.06452C13.2 7.30929 11.3196 9.12903 9 9.12903C6.6804 9.12903 4.8 7.30929 4.8 5.06452C4.8 2.81975 6.6804 1 9 1C11.3196 1 13.2 2.81975 13.2 5.06452Z" stroke="#6F6D6D" stroke-width="2" stroke-linecap="round" stroke-linejoin="round"/>
</svg>
