<svg width="20" height="20" viewBox="0 0 20 20" fill="none" xmlns="http://www.w3.org/2000/svg">
<path d="M2.5 7H5.5C6.32843 7 7 6.32843 7 5.5V2.5C7 1.67157 7.67157 1 8.5 1H11.5C12.3284 1 13 1.67157 13 2.5V5.5C13 6.32843 13.6716 7 14.5 7H17.5C18.3284 7 19 7.67157 19 8.5V11.5C19 12.3284 18.3284 13 17.5 13H14.5C13.6716 13 13 13.6716 13 14.5V17.5C13 18.3284 12.3284 19 11.5 19H8.5C7.67157 19 7 18.3284 7 17.5V14.5C7 13.6716 6.32843 13 5.5 13H2.5C1.67157 13 1 12.3284 1 11.5V8.5C1 7.67157 1.67157 7 2.5 7Z" stroke="white" stroke-width="2"/>
</svg>
