<svg width="21" height="21" viewBox="0 0 21 21" fill="none" xmlns="http://www.w3.org/2000/svg">
<path d="M14.9706 17.6155L17.6154 14.9707L17.6619 14.9241C18.2888 14.2973 18.8289 13.7573 19.2033 13.2666C19.6045 12.7408 19.9083 12.1559 19.9083 11.4351C19.9083 10.7144 19.6045 10.1295 19.2033 9.60369C18.8289 9.11303 18.2888 8.57297 17.6619 7.94616L17.6154 7.89961L12.2634 2.54761C12.2299 2.51416 12.1968 2.48091 12.1639 2.44791C11.6779 1.96041 11.2465 1.5277 10.6814 1.29703C10.1162 1.06636 9.50529 1.07362 8.81698 1.08181C8.77039 1.08237 8.72344 1.08293 8.67613 1.08341L6.0584 1.11048L5.99341 1.11115C5.12393 1.12009 4.37383 1.12781 3.77272 1.2143C3.128 1.30707 2.51096 1.50744 2.00914 2.00926C1.50733 2.51107 1.30695 3.12812 1.21419 3.77284C1.12769 4.37394 1.11998 5.12405 1.11104 5.99353C1.11082 6.01512 1.11059 6.03678 1.11037 6.05851L1.0833 8.67624C1.08281 8.72356 1.08225 8.7705 1.0817 8.81709C1.07351 9.50541 1.06624 10.1164 1.29691 10.6815C1.52758 11.2466 1.96029 11.678 2.4478 12.164C2.48079 12.1969 2.51404 12.23 2.5475 12.2635L7.8995 17.6155L7.94604 17.662C8.57285 18.2889 9.11292 18.829 9.60358 19.2034C10.1294 19.6046 10.7143 19.9084 11.435 19.9084C12.1558 19.9084 12.7406 19.6046 13.2665 19.2034C13.7571 18.829 14.2972 18.2889 14.924 17.662L14.9706 17.6155Z" fill="#6F6D6D" stroke="white" stroke-width="2" stroke-linecap="round"/>
</svg>
