<svg width="28" height="32" viewBox="0 0 28 32" fill="none" xmlns="http://www.w3.org/2000/svg">
<path d="M6.36801 3.78906H5.78906C3.90344 3.78906 2.96064 3.78906 2.37485 4.37485C1.78906 4.96064 1.78906 5.90345 1.78906 7.78907V26.4996C1.78906 28.3852 1.78906 29.328 2.37485 29.9138C2.96064 30.4996 3.90344 30.4996 5.78906 30.4996H22.2101C24.0957 30.4996 25.0386 30.4996 25.6243 29.9138C26.2101 29.328 26.2101 28.3852 26.2101 26.4996V7.78906C26.2101 5.90344 26.2101 4.96064 25.6243 4.37485C25.0386 3.78906 24.0957 3.78906 22.2101 3.78906H21.6312" stroke="#6F6D6D" stroke-width="3"/>
<path d="M6.36816 4.17105C6.36816 3.54698 6.36816 3.23494 6.43721 2.97903C6.62269 2.29155 7.15971 1.75452 7.8472 1.56904C8.10311 1.5 8.41514 1.5 9.03922 1.5H18.9603C19.5843 1.5 19.8964 1.5 20.1523 1.56904C20.8398 1.75452 21.3768 2.29155 21.5623 2.97903C21.6313 3.23494 21.6313 3.54698 21.6313 4.17105V4.17105C21.6313 4.79513 21.6313 5.10717 21.5623 5.36307C21.3768 6.05056 20.8398 6.58758 20.1523 6.77306C19.8964 6.84211 19.5843 6.84211 18.9603 6.84211H9.03922C8.41514 6.84211 8.10311 6.84211 7.8472 6.77306C7.15971 6.58758 6.62269 6.05056 6.43721 5.36307C6.36816 5.10717 6.36816 4.79513 6.36816 4.17105V4.17105Z" stroke="#6F6D6D" stroke-width="3"/>
<path d="M7.89453 12.1846H20.1051" stroke="#6F6D6D" stroke-width="3" stroke-linecap="round" stroke-linejoin="round"/>
<path d="M7.89453 18.2891H20.1051" stroke="#6F6D6D" stroke-width="3" stroke-linecap="round" stroke-linejoin="round"/>
<path d="M7.89453 24.3945H13.9998" stroke="#6F6D6D" stroke-width="3" stroke-linecap="round" stroke-linejoin="round"/>
</svg>
