<svg width="25" height="24" viewBox="0 0 25 24" fill="none" xmlns="http://www.w3.org/2000/svg">
<path d="M2.82812 3H12.1767C12.5365 3 12.8281 3.29164 12.8281 3.65139V3.65139C12.8281 3.86918 12.7193 4.07257 12.5381 4.19338L4.11819 9.80662C3.93697 9.92744 3.82812 10.1308 3.82812 10.3486V10.3486C3.82812 10.7084 4.11976 11 4.47951 11H13.8281" stroke="#007AFF" stroke-width="2"/>
<path d="M14.8281 13H21.1767C21.5365 13 21.8281 13.2916 21.8281 13.6514V13.6514C21.8281 13.8692 21.7193 14.0726 21.5381 14.1934L16.1182 17.8066C15.937 17.9274 15.8281 18.1308 15.8281 18.3486V18.3486C15.8281 18.7084 16.1198 19 16.4795 19H22.8281" stroke="#007AFF" stroke-width="2"/>
<path d="M6.82812 17H12.1896C12.5423 17 12.8281 17.2859 12.8281 17.6385V17.6385C12.8281 17.8628 12.7105 18.0706 12.5181 18.186L8.13812 20.814C7.9458 20.9294 7.82812 21.1372 7.82812 21.3615V21.3615C7.82812 21.7141 8.11399 22 8.46662 22H13.8281" stroke="#007AFF" stroke-width="2"/>
</svg>
