<svg width="20" height="22" viewBox="0 0 20 22" fill="none" xmlns="http://www.w3.org/2000/svg">
<path d="M10.418 17.8804V12.1729" stroke="#42C970" stroke-width="2" stroke-linecap="round"/>
<path d="M3.28272 20.259C3.28272 20.259 4.70962 18.3564 10.4172 18.3564C16.1248 18.3564 18.5029 20.259 18.5029 20.259" stroke="#42C970" stroke-width="2" stroke-linecap="round"/>
<path d="M2.52439 2.4487C3.46811 1.50498 6.14571 2.65253 8.505 5.01182C10.8643 7.3711 12.0118 10.0487 11.0681 10.9924C10.1244 11.9361 7.4468 10.7886 5.08751 8.42931C2.72822 6.07002 1.58068 3.39241 2.52439 2.4487Z" stroke="#42C970" stroke-width="2"/>
<path d="M10.4627 11.3807C11.7025 11.1156 13.375 10.0928 14.9123 8.5555C17.2716 6.19622 18.4191 3.51861 17.4754 2.57489C16.5317 1.63118 13.8541 2.77873 11.4948 5.13801C11.0339 5.59887 10.6193 6.07187 10.2575 6.54173" stroke="#42C970" stroke-width="2" stroke-linecap="round"/>
</svg>
