<svg width="25" height="24" viewBox="0 0 25 24" fill="none" xmlns="http://www.w3.org/2000/svg">
<path d="M10.3 8.89978L7.61863 22.4024C7.55723 22.7116 7.79381 22.9998 8.10905 22.9998H9.2C9.43385 22.9998 9.63647 22.8377 9.68781 22.6095L11.4 14.9998L12.569 16.1131C13.1635 16.6793 13.5 17.4645 13.5 18.2855V22.4998C13.5 22.7759 13.7239 22.9998 14 22.9998H15C15.2761 22.9998 15.5 22.7759 15.5 22.4998V17.2651C15.5 16.1378 15.038 15.0598 14.2217 14.2823C13.7102 13.7952 13.484 13.0798 13.6225 12.3871L14 10.4998C15.2008 11.8854 16.9989 12.8443 19.0003 12.9825C19.2757 13.0016 19.5 12.7759 19.5 12.4998V11.4998C19.5 11.2236 19.2755 11.0023 19.0006 10.9765C17.3218 10.8188 15.9289 9.87529 15.2 8.59978L14.2 6.99978C13.64 6.10978 12.52 5.74978 11.55 6.15978L9.54912 7.00768C7.7007 7.79097 6.5 9.60384 6.5 11.6114V12.4998C6.5 12.7759 6.72386 12.9998 7 12.9998H8C8.27614 12.9998 8.5 12.7759 8.5 12.4998V11.5311C8.5 10.3667 9.21481 9.3218 10.3 8.89978Z" fill="#0F67FE"/>
<rect x="11.5" y="1" width="4" height="4" rx="1.5" fill="#0F67FE"/>
</svg>
